# xmcd CD database file
#
# Track frame offsets:
#	150
#	6842
#	33692
#	63947
#	87570
#	109042
#	135085
#	151950
#	173805
#	203092
#	224470
#	248472
#	276495
#	302322
#
# Disc length: 4356 seconds
#
# Revision: 2
# Processed by: cddbd v1.5.2PL0 Copyright (c) Steve Scherf et al.
# Submitted via: CDex 1.70beta3
#
DISCID=b611020e
DTITLE=AkikoGrace - Tokyo
DYEAR=2004
DGENRE=Jazz
TTITLE0=Prelude ～KagomeKagome
TTITLE1=東京狂想曲
TTITLE2=春先子紅
TTITLE3=悠久の街
TTITLE4=記憶
TTITLE5=In Front Of The Skywheel
TTITLE6=DonnaLee
TTITLE7=おぼろ月夜
TTITLE8=島唄
TTITLE9=KUROSAWA
TTITLE10=GiantSteps
TTITLE11=Calmness
TTITLE12=最初の光 - 飛翔
TTITLE13=KagomeKagome
EXTD=YEAR: 2004
EXTT0=
EXTT1=
EXTT2=
EXTT3=
EXTT4=
EXTT5=
EXTT6=
EXTT7=
EXTT8=
EXTT9=
EXTT10=
EXTT11=
EXTT12=
EXTT13=
PLAYORDER=
